<?xml version="1.0" encoding="UTF-8" standalone="no"?>
<svg xmlns="http://www.w3.org/2000/svg"
     xmlns:xlink="http://www.w3.org/1999/xlink"
     width="1916px" height="320px" viewBox="0 0 1916 320">
<title>glps_renderer figure</title>
<desc>
Creator: GL2PS 1.3.9, (C) 1999-2015 C. Geuzaine
For: Octave
CreationDate: Wed Aug 22 18:12:53 2018
</desc>
<defs>
</defs>
<g shape-rendering="crispEdges">
<polygon fill="#ffffff" points="147.189,320 448.971,320 147.189,32.4"/>
<polygon fill="#ffffff" points="448.971,320 448.971,32.4 147.189,32.4"/>
<polyline fill="none" stroke="#000000" stroke-width="0.5" stroke-dasharray="16,0" points="147.189,32.4 448.971,32.4"/>
<polyline fill="none" stroke="#000000" stroke-width="0.5" stroke-dasharray="16,0" points="147.189,320 147.189,32.4"/>
<polyline fill="none" stroke="#000000" stroke-width="0.5" stroke-dasharray="16,0" points="448.971,320 448.971,32.4"/>
<polyline fill="none" stroke="#000000" stroke-width="0.5" stroke-dasharray="16,0" points="147.189,32.4 147.189,36.865"/>
<polyline fill="none" stroke="#000000" stroke-width="0.5" stroke-dasharray="16,0" points="197.486,32.4 197.486,36.865"/>
<polyline fill="none" stroke="#000000" stroke-width="0.5" stroke-dasharray="16,0" points="247.783,32.4 247.783,36.865"/>
<polyline fill="none" stroke="#000000" stroke-width="0.5" stroke-dasharray="16,0" points="298.08,32.4 298.08,36.865"/>
<polyline fill="none" stroke="#000000" stroke-width="0.5" stroke-dasharray="16,0" points="348.377,32.4 348.377,36.865"/>
<polyline fill="none" stroke="#000000" stroke-width="0.5" stroke-dasharray="16,0" points="398.674,32.4 398.674,36.865"/>
<polyline fill="none" stroke="#000000" stroke-width="0.5" stroke-dasharray="16,0" points="448.971,32.4 448.971,36.865"/>
<polyline fill="none" stroke="#000000" stroke-width="0.5" stroke-dasharray="16,0" points="147.189,283.886 151.649,283.886"/>
<polyline fill="none" stroke="#000000" stroke-width="0.5" stroke-dasharray="16,0" points="448.971,283.886 444.511,283.886"/>
<polyline fill="none" stroke="#000000" stroke-width="0.5" stroke-dasharray="16,0" points="147.189,233.589 151.649,233.589"/>
<polyline fill="none" stroke="#000000" stroke-width="0.5" stroke-dasharray="16,0" points="448.971,233.589 444.511,233.589"/>
<polyline fill="none" stroke="#000000" stroke-width="0.5" stroke-dasharray="16,0" points="147.189,183.291 151.649,183.291"/>
<polyline fill="none" stroke="#000000" stroke-width="0.5" stroke-dasharray="16,0" points="448.971,183.291 444.511,183.291"/>
<polyline fill="none" stroke="#000000" stroke-width="0.5" stroke-dasharray="16,0" points="147.189,132.994 151.649,132.994"/>
<polyline fill="none" stroke="#000000" stroke-width="0.5" stroke-dasharray="16,0" points="448.971,132.994 444.511,132.994"/>
<polyline fill="none" stroke="#000000" stroke-width="0.5" stroke-dasharray="16,0" points="147.189,82.6971 151.649,82.6971"/>
<polyline fill="none" stroke="#000000" stroke-width="0.5" stroke-dasharray="16,0" points="448.971,82.6971 444.511,82.6971"/>
<polyline fill="none" stroke="#000000" stroke-width="0.5" stroke-dasharray="16,0" points="147.189,32.4 151.649,32.4"/>
<polyline fill="none" stroke="#000000" stroke-width="0.5" stroke-dasharray="16,0" points="448.971,32.4 444.511,32.4"/>
<text fill="#000000" x="142.192" y="283.886" font-size="10" text-anchor="end" baseline-shift="-5" font-family="Helvetica">-60</text>
<text fill="#000000" x="142.192" y="233.589" font-size="10" text-anchor="end" baseline-shift="-5" font-family="Helvetica">-40</text>
<text fill="#000000" x="142.192" y="183.291" font-size="10" text-anchor="end" baseline-shift="-5" font-family="Helvetica">-20</text>
<text fill="#000000" x="142.192" y="132.994" font-size="10" text-anchor="end" baseline-shift="-5" font-family="Helvetica">0</text>
<text fill="#000000" x="142.192" y="82.6971" font-size="10" text-anchor="end" baseline-shift="-5" font-family="Helvetica">20</text>
<text fill="#000000" x="142.192" y="32.4" font-size="10" text-anchor="end" baseline-shift="-5" font-family="Helvetica">40</text>
<polyline fill="none" stroke="#0000ff" stroke-width="1" points="298.08,132.994 398.36,132.493 398.045,131.995 397.728,131.499 397.409,131.007 397.09,130.519 396.768,130.033 396.445,129.55 396.121,129.071 395.796,128.594 395.469,128.121 395.141,127.651 394.811,127.183 394.48,126.719 394.148,126.259 393.815,125.801 393.48,125.346 393.144,124.894 392.807,124.446 392.469,124 392.13,123.558 391.789,123.119 391.447,122.682 391.105,122.249 390.761,121.819 390.416,121.392 390.07,120.968 389.723,120.547 389.375,120.129 389.026,119.714 388.676,119.302 388.325,118.893 387.973,118.487 387.62,118.085 387.266,117.685 386.912,117.288 386.556,116.894 386.2,116.504 385.842,116.116 385.484,115.731 385.126,115.349 384.766,114.97 384.406,114.595 384.044,114.222 383.683,113.852 383.32,113.485 382.957,113.121 382.593,112.76 382.228,112.402 381.863,112.047 381.497,111.694 381.131,111.345 380.764,110.999 380.396,110.655 380.028,110.315 379.659,109.977 379.289,109.642 378.92,109.31 378.549,108.981 378.179,108.655 377.807,108.332 377.435,108.011 377.063,107.694 376.691,107.379 376.318,107.067 375.944,106.758 375.571,106.452 375.196,106.148 374.822,105.848 374.447,105.55 374.072,105.255 373.697,104.963 373.321,104.673 372.945,104.387 372.569,104.103 372.192,103.822 371.815,103.543 371.439,103.268 371.061,102.995 298.08,132.994 328.591,37.4671 328.02,37.6131 327.451,37.7615 326.885,37.9124 326.321,38.0655 325.76,38.221 325.201,38.3788 324.645,38.5389 324.091,38.7013 323.54,38.8659 322.991,39.0327 322.445,39.2018 321.902,39.3731 321.361,39.5465 320.822,39.7221 320.286,39.8998 319.753,40.0797 319.222,40.2616 318.694,40.4456 318.168,40.6317 317.645,40.8199 317.125,41.01 316.607,41.2021 316.091,41.3962 315.579,41.5923 315.069,41.7903 314.561,41.9903 314.056,42.1922 313.553,42.3959 313.054,42.6015 312.556,42.809 312.062,43.0183 311.569,43.2294 311.08,43.4423 310.593,43.657 310.109,43.8734 309.627,44.0916 309.148,44.3115 308.671,44.5331 308.197,44.7564 307.726,44.9813 307.257,45.2079 306.791,45.4361 306.327,45.666 305.866,45.8974 305.408,46.1304 304.952,46.365 304.499,46.6011 304.048,46.8387 303.6,47.0778 303.154,47.3185 302.712,47.5605 302.271,47.8041 301.834,48.049 301.398,48.2954 300.966,48.5432 300.536,48.7924 300.109,49.0429 299.684,49.2948 299.262,49.548 298.842,49.8026 298.425,50.0584 298.01,50.3155 297.599,50.5739 297.189,50.8335 296.783,51.0944 296.378,51.3564 295.977,51.6197 295.578,51.8841 295.181,52.1497 294.787,52.4165 294.396,52.6843 294.007,52.9533 293.621,53.2234 293.237,53.4946 292.856,53.7668 292.477,54.0402 292.101,54.3145 298.08,132.994 216.657,74.4566 216.619,75.0452 216.584,75.632 216.553,76.2173 216.524,76.8008 216.499,77.3827 216.476,77.9629 216.457,78.5414 216.44,79.1182 216.426,79.6932 216.415,80.2666 216.407,80.8382 216.402,81.4081 216.4,81.9762 216.401,82.5425 216.404,83.1071 216.41,83.6699 216.419,84.2309 216.431,84.7901 216.446,85.3475 216.463,85.9031 216.483,86.4569 216.506,87.0089 216.531,87.559 216.559,88.1072 216.59,88.6537 216.623,89.1982 216.659,89.7409 216.697,90.2818 216.738,90.8207 216.782,91.3578 216.828,91.8929 216.877,92.4262 216.928,92.9576 216.982,93.487 217.038,94.0145 217.097,94.5401 217.158,95.0638 217.221,95.5855 217.287,96.1053 217.355,96.6231 217.426,97.139 217.499,97.6529 217.574,98.1648 217.652,98.6748 217.732,99.1828 217.814,99.6888 217.899,100.193 217.985,100.695 218.074,101.195 218.166,101.693 218.259,102.189 218.354,102.683 218.452,103.175 218.552,103.665 218.654,104.153 218.758,104.639 218.864,105.123 218.973,105.604 219.083,106.084 219.195,106.562 219.31,107.038 219.426,107.511 219.545,107.983 219.665,108.452 219.788,108.92 219.912,109.385 220.038,109.848 220.166,110.31 220.296,110.769 220.428,111.226 220.562,111.681 220.698,112.134 220.836,112.585 220.975,113.033 221.116,113.48 221.259,113.924 221.404,114.367 298.08,132.994 217.246,192.343 217.794,192.561 218.342,192.775 218.889,192.986 219.435,193.194 219.98,193.398 220.525,193.599 221.069,193.796 221.613,193.99 222.155,194.181 222.697,194.368 223.238,194.553 223.779,194.733 224.318,194.911 224.857,195.086 225.395,195.257 225.932,195.425 226.469,195.59 227.004,195.751 227.539,195.91 228.073,196.065 228.605,196.217 229.137,196.366 229.668,196.512 230.198,196.655 230.728,196.794 231.256,196.931 231.783,197.064 232.309,197.195 232.835,197.322 233.359,197.447 233.882,197.568 234.404,197.687 234.925,197.802 235.446,197.915 235.965,198.024 236.483,198.131 237,198.235 237.515,198.336 238.03,198.434 238.544,198.529 239.056,198.621 239.567,198.71 240.078,198.797 240.587,198.881 241.094,198.962 241.601,199.04 242.107,199.115 242.611,199.188 243.114,199.258 243.616,199.325 244.116,199.389 244.616,199.451 245.114,199.51 245.611,199.567 246.106,199.62 246.6,199.671 247.093,199.72 247.585,199.766 248.076,199.809 248.565,199.85 249.052,199.888 249.539,199.924 250.024,199.957 250.508,199.987 250.99,200.015 251.471,200.041 251.951,200.064 252.429,200.085 252.906,200.103 253.381,200.119 253.855,200.132 254.328,200.143 254.799,200.151 255.269,200.157 255.738,200.161 256.204,200.163 256.67,200.162 298.08,132.994 329.545,228.212 329.922,227.758 330.295,227.303 330.664,226.848 331.03,226.393 331.393,225.937 331.752,225.481 332.108,225.025 332.461,224.568 332.81,224.111 333.156,223.653 333.498,223.195 333.837,222.737 334.173,222.279 334.505,221.821 334.834,221.362 335.16,220.903 335.483,220.444 335.802,219.984 336.118,219.525 336.43,219.065 336.739,218.605 337.046,218.146 337.348,217.686 337.648,217.226 337.944,216.765 338.237,216.305 338.527,215.845 338.814,215.385 339.098,214.925 339.378,214.465 339.655,214.005 339.929,213.544 340.2,213.085 340.468,212.625 340.733,212.165 340.994,211.705 341.253,211.246 341.508,210.786 341.76,210.327 342.009,209.868 342.255,209.409 342.498,208.95 342.738,208.492 342.975,208.034 343.209,207.576 343.44,207.118 343.668,206.661 343.893,206.204 344.115,205.747 344.334,205.29 344.55,204.834 344.763,204.378 344.973,203.923 345.18,203.468 345.384,203.013 345.586,202.559 345.784,202.105 345.98,201.651 346.172,201.198 346.362,200.746 346.549,200.294 346.734,199.842 346.915,199.391 347.094,198.94 347.269,198.49 347.442,198.041 347.612,197.591 347.78,197.143 347.944,196.695 348.106,196.248 348.265,195.801 348.422,195.355 348.576,194.909 348.727,194.464 348.875,194.02 349.021,193.576 349.164,193.133 298.08,132.994"/>
<polyline fill="none" stroke="#0000ff" stroke-width="0.5" points="295.08,132.994 301.08,132.994"/>
<polyline fill="none" stroke="#0000ff" stroke-width="0.5" points="298.08,129.994 298.08,135.994"/>
<polyline fill="none" stroke="#0000ff" stroke-width="0.5" points="295.959,130.873 300.201,135.116"/>
<polyline fill="none" stroke="#0000ff" stroke-width="0.5" points="295.959,135.116 300.201,130.873"/>
<polyline fill="none" stroke="#0000ff" stroke-width="0.5" points="147.189,208.44 213.832,208.44 213.832,249.935 280.476,249.935 280.476,291.43 347.12,291.43 347.12,320"/>
</g>
</svg>
