<?xml version="1.0" encoding="UTF-8" standalone="no"?>
<svg
   xmlns:dc="http://purl.org/dc/elements/1.1/"
   xmlns:cc="http://creativecommons.org/ns#"
   xmlns:rdf="http://www.w3.org/1999/02/22-rdf-syntax-ns#"
   xmlns:svg="http://www.w3.org/2000/svg"
   xmlns="http://www.w3.org/2000/svg"
   xmlns:sodipodi="http://sodipodi.sourceforge.net/DTD/sodipodi-0.dtd"
   xmlns:inkscape="http://www.inkscape.org/namespaces/inkscape"
   width="1916px"
   height="320px"
   viewBox="0 0 1916 320"
   version="1.1"
   id="svg76"
   sodipodi:docname="result.svg"
   inkscape:version="0.92.1 r15371">
  <metadata
     id="metadata80">
    <rdf:RDF>
      <cc:Work
         rdf:about="">
        <dc:format>image/svg+xml</dc:format>
        <dc:type
           rdf:resource="http://purl.org/dc/dcmitype/StillImage" />
      </cc:Work>
    </rdf:RDF>
  </metadata>
  <sodipodi:namedview
     pagecolor="#ffffff"
     bordercolor="#666666"
     borderopacity="1"
     objecttolerance="10"
     gridtolerance="10"
     guidetolerance="10"
     inkscape:pageopacity="0"
     inkscape:pageshadow="2"
     inkscape:window-width="983"
     inkscape:window-height="758"
     id="namedview78"
     showgrid="false"
     inkscape:zoom="2.6638831"
     inkscape:cx="738.81319"
     inkscape:cy="121.4549"
     inkscape:window-x="196"
     inkscape:window-y="284"
     inkscape:window-maximized="0"
     inkscape:current-layer="svg76" />
  <title
     id="title2">glps_renderer figure</title>
  <desc
     id="desc4">
Creator: GL2PS 1.3.9, (C) 1999-2015 C. Geuzaine
For: Octave
CreationDate: Wed Aug 22 18:29:36 2018
</desc>
  <defs
     id="defs6" />
  <polygon
     style="fill:#ffffff;shape-rendering:crispEdges"
     id="polygon8"
     points="122.04,32.4 122.04,320 474.12,320 " />
  <polygon
     style="fill:#ffffff;shape-rendering:crispEdges"
     id="polygon10"
     points="122.04,32.4 474.12,320 474.12,32.4 " />
  <polyline
     style="fill:none;stroke:#000000;stroke-width:0.5;stroke-dasharray:16, 0;shape-rendering:crispEdges"
     id="polyline12"
     points="122.04,32.4 474.12,32.4" />
  <polyline
     style="fill:none;stroke:#000000;stroke-width:0.5;stroke-dasharray:16, 0;shape-rendering:crispEdges"
     id="polyline14"
     points="122.04,320 122.04,32.4" />
  <polyline
     style="fill:none;stroke:#000000;stroke-width:0.5;stroke-dasharray:16, 0;shape-rendering:crispEdges"
     id="polyline16"
     points="474.12,320 474.12,32.4" />
  <polyline
     style="fill:none;stroke:#000000;stroke-width:0.5;stroke-dasharray:16, 0;shape-rendering:crispEdges"
     id="polyline18"
     points="122.04,32.4 122.04,36.865" />
  <polyline
     style="fill:none;stroke:#000000;stroke-width:0.5;stroke-dasharray:16, 0;shape-rendering:crispEdges"
     id="polyline20"
     points="180.72,32.4 180.72,36.865" />
  <polyline
     style="fill:none;stroke:#000000;stroke-width:0.5;stroke-dasharray:16, 0;shape-rendering:crispEdges"
     id="polyline22"
     points="239.4,32.4 239.4,36.865" />
  <polyline
     style="fill:none;stroke:#000000;stroke-width:0.5;stroke-dasharray:16, 0;shape-rendering:crispEdges"
     id="polyline24"
     points="298.08,32.4 298.08,36.865" />
  <polyline
     style="fill:none;stroke:#000000;stroke-width:0.5;stroke-dasharray:16, 0;shape-rendering:crispEdges"
     id="polyline26"
     points="356.76,32.4 356.76,36.865" />
  <polyline
     style="fill:none;stroke:#000000;stroke-width:0.5;stroke-dasharray:16, 0;shape-rendering:crispEdges"
     id="polyline28"
     points="415.44,32.4 415.44,36.865" />
  <polyline
     style="fill:none;stroke:#000000;stroke-width:0.5;stroke-dasharray:16, 0;shape-rendering:crispEdges"
     id="polyline30"
     points="474.12,32.4 474.12,36.865" />
  <polyline
     style="fill:none;stroke:#000000;stroke-width:0.5;stroke-dasharray:16, 0;shape-rendering:crispEdges"
     id="polyline32"
     points="122.04,267.12 126.505,267.12" />
  <polyline
     style="fill:none;stroke:#000000;stroke-width:0.5;stroke-dasharray:16, 0;shape-rendering:crispEdges"
     id="polyline34"
     points="474.12,267.12 469.655,267.12" />
  <polyline
     style="fill:none;stroke:#000000;stroke-width:0.5;stroke-dasharray:16, 0;shape-rendering:crispEdges"
     id="polyline36"
     points="122.04,208.44 126.505,208.44" />
  <polyline
     style="fill:none;stroke:#000000;stroke-width:0.5;stroke-dasharray:16, 0;shape-rendering:crispEdges"
     id="polyline38"
     points="474.12,208.44 469.655,208.44" />
  <polyline
     style="fill:none;stroke:#000000;stroke-width:0.5;stroke-dasharray:16, 0;shape-rendering:crispEdges"
     id="polyline40"
     points="122.04,149.76 126.505,149.76" />
  <polyline
     style="fill:none;stroke:#000000;stroke-width:0.5;stroke-dasharray:16, 0;shape-rendering:crispEdges"
     id="polyline42"
     points="474.12,149.76 469.655,149.76" />
  <polyline
     style="fill:none;stroke:#000000;stroke-width:0.5;stroke-dasharray:16, 0;shape-rendering:crispEdges"
     id="polyline44"
     points="122.04,91.08 126.505,91.08" />
  <polyline
     style="fill:none;stroke:#000000;stroke-width:0.5;stroke-dasharray:16, 0;shape-rendering:crispEdges"
     id="polyline46"
     points="474.12,91.08 469.655,91.08" />
  <polyline
     style="fill:none;stroke:#000000;stroke-width:0.5;stroke-dasharray:16, 0;shape-rendering:crispEdges"
     id="polyline48"
     points="122.04,32.4 126.505,32.4" />
  <polyline
     style="fill:none;stroke:#000000;stroke-width:0.5;stroke-dasharray:16, 0;shape-rendering:crispEdges"
     id="polyline50"
     points="474.12,32.4 469.655,32.4" />
  <text
     style="font-size:10px;font-family:Helvetica;baseline-shift:-5px;text-anchor:end;fill:#000000;shape-rendering:crispEdges"
     id="text52"
     baseline-shift="-5"
     font-size="10"
     y="267.12"
     x="117.039">-60</text>
  <text
     style="font-size:10px;font-family:Helvetica;baseline-shift:-5px;text-anchor:end;fill:#000000;shape-rendering:crispEdges"
     id="text54"
     baseline-shift="-5"
     font-size="10"
     y="208.44"
     x="117.039">-40</text>
  <text
     style="font-size:10px;font-family:Helvetica;baseline-shift:-5px;text-anchor:end;fill:#000000;shape-rendering:crispEdges"
     id="text56"
     baseline-shift="-5"
     font-size="10"
     y="149.75999"
     x="117.039">-20</text>
  <text
     style="font-size:10px;font-family:Helvetica;baseline-shift:-5px;text-anchor:end;fill:#000000;shape-rendering:crispEdges"
     id="text58"
     baseline-shift="-5"
     font-size="10"
     y="91.080002"
     x="117.039">0</text>
  <text
     style="font-size:10px;font-family:Helvetica;baseline-shift:-5px;text-anchor:end;fill:#000000;shape-rendering:crispEdges"
     id="text60"
     baseline-shift="-5"
     font-size="10"
     y="32.400002"
     x="117.039">20</text>
  <polyline
     style="fill:none;stroke:#0000ff;stroke-width:1;shape-rendering:crispEdges"
     id="polyline62"
     points="298.08,91.08 333.397,90.9034 333.506,90.7257 333.614,90.5469 333.722,90.3671 333.829,90.1861 333.936,90.004 334.042,89.8208 334.147,89.6365 334.252,89.4512 334.356,89.2647 334.459,89.0771 334.562,88.8884 334.665,88.6986 334.766,88.5077 334.867,88.3157 334.968,88.1227 335.068,87.9285 335.167,87.7332 335.265,87.5367 335.363,87.3392 335.46,87.1406 335.556,86.9409 335.652,86.7401 335.747,86.5382 335.841,86.3351 335.934,86.131 336.027,85.9258 336.119,85.7195 336.21,85.512 336.301,85.3035 336.39,85.0939 336.479,84.8831 336.568,84.6713 336.655,84.4583 336.742,84.2443 336.827,84.0292 336.912,83.8129 336.996,83.5956 337.08,83.3772 337.162,83.1576 337.244,82.937 337.325,82.7153 337.405,82.4925 337.484,82.2686 337.562,82.0436 337.639,81.8175 337.715,81.5903 337.791,81.3621 337.866,81.1327 337.939,80.9023 338.012,80.6707 338.084,80.4381 338.155,80.2045 338.224,79.9697 338.293,79.7338 338.361,79.4969 338.428,79.2589 338.494,79.0198 338.559,78.7797 338.623,78.5384 338.686,78.2961 338.748,78.0528 338.809,77.8083 338.869,77.5628 338.928,77.3163 338.986,77.0687 339.043,76.82 339.098,76.5703 339.153,76.3195 339.207,76.0676 339.259,75.8147 339.31,75.5608 339.361,75.3058 339.41,75.0497 339.458,74.7927 339.504,74.5346 339.55,74.2754 339.595,74.0152 339.638,73.754 339.68,73.4918 339.721,73.2285 339.761,72.9642 339.799,72.6989 339.837,72.4326 339.873,72.1652 339.908,71.8969 339.942,71.6275 339.974,71.3571 340.005,71.0858 340.035,70.8134 340.064,70.54 340.091,70.2657 340.117,69.9903 340.142,69.714 340.165,69.4367 340.188,69.1584 340.208,68.8791 340.228,68.5989 340.246,68.3177 340.263,68.0355 340.278,67.7523 340.292,67.4683 340.305,67.1832 340.316,66.8972 340.326,66.6103 340.334,66.3224 340.341,66.0336 340.347,65.7438 340.351,65.4532 340.354,65.1616 340.355,64.869 340.355,64.5756 340.353,64.2813 340.35,63.986 340.346,63.6899 340.34,63.3928 340.332,63.0949 340.323,62.7961 340.312,62.4963 340.3,62.1957 340.286,61.8943 340.271,61.592 340.254,61.2888 340.236,60.9847 340.216,60.6799 340.194,60.3741 340.171,60.0675 340.146,59.7601 340.119,59.4518 340.091,59.1428 340.062,58.8329 340.03,58.5222 339.997,58.2107 339.963,57.8984 339.926,57.5852 339.888,57.2714 339.848,56.9567 339.807,56.6412 339.764,56.325 339.719,56.008 339.672,55.6902 339.624,55.3717 339.574,55.0524 339.522,54.7324 339.469,54.4117 339.413,54.0902 339.356,53.7681 339.297,53.4452 339.236,53.1216 339.174,52.7972 339.109,52.4722 339.043,52.1466 338.975,51.8202 338.905,51.4932 338.833,51.1655 338.76,50.8371 338.684,50.5081 338.607,50.1785 338.528,49.8482 338.446,49.5173 338.363,49.1857 338.278,48.8536 338.191,48.5208 298.08,91.08 280.268,60.5826 280.06,60.5772 279.851,60.5728 279.642,60.5695 279.431,60.5673 279.22,60.566 279.009,60.5659 278.796,60.5668 278.583,60.5687 278.37,60.5717 278.156,60.5759 277.941,60.5811 277.725,60.5873 277.509,60.5948 277.292,60.6033 277.075,60.6129 276.857,60.6236 276.638,60.6355 276.419,60.6485 276.199,60.6626 275.979,60.6779 275.757,60.6943 275.536,60.7119 275.313,60.7307 275.09,60.7506 274.867,60.7717 274.643,60.794 274.418,60.8175 274.193,60.8422 273.967,60.8681 273.741,60.8953 273.514,60.9236 273.286,60.9532 273.058,60.9839 272.829,61.016 272.6,61.0493 272.37,61.0838 272.14,61.1196 271.909,61.1566 271.678,61.195 271.446,61.2346 271.214,61.2755 270.981,61.3177 270.747,61.3612 270.513,61.406 270.279,61.4521 270.044,61.4995 269.809,61.5483 269.573,61.5984 269.336,61.6498 269.099,61.7026 268.862,61.7567 268.624,61.8122 268.386,61.869 268.147,61.9272 267.908,61.9868 267.668,62.0478 267.428,62.1102 267.188,62.174 266.947,62.2391 266.706,62.3057 266.464,62.3737 266.222,62.4431 265.979,62.514 265.736,62.5863 265.493,62.66 265.249,62.7352 265.005,62.8118 264.76,62.8899 264.516,62.9695 264.27,63.0505 264.025,63.1331 263.779,63.2171 263.533,63.3026 263.286,63.3896 263.039,63.4781 262.792,63.5682 262.544,63.6597 262.296,63.7528 262.048,63.8474 261.8,63.9435 261.551,64.0413 261.302,64.1405 261.053,64.2413 260.803,64.3437 260.553,64.4476 260.303,64.5531 260.053,64.6602 259.802,64.7689 259.551,64.8792 259.3,64.991 259.049,65.1045 258.797,65.2196 258.546,65.3363 258.294,65.4547 258.042,65.5746 257.789,65.6963 257.537,65.8195 257.284,65.9444 257.031,66.071 256.779,66.1992 256.526,66.3291 256.272,66.4606 256.019,66.5938 255.766,66.7288 255.512,66.8654 255.258,67.0037 255.005,67.1437 254.751,67.2854 254.497,67.4288 254.243,67.574 253.989,67.7208 253.735,67.8694 253.481,68.0198 253.227,68.1718 252.972,68.3257 252.718,68.4812 252.464,68.6386 252.21,68.7977 251.956,68.9585 251.701,69.1212 251.447,69.2856 251.193,69.4518 250.939,69.6198 250.685,69.7896 250.431,69.9612 250.177,70.1346 249.923,70.3098 249.669,70.4868 249.416,70.6657 249.162,70.8464 248.909,71.0289 248.656,71.2133 248.403,71.3994 248.15,71.5875 247.897,71.7774 247.644,71.9691 247.392,72.1628 247.139,72.3582 246.887,72.5556 246.635,72.7548 246.384,72.9559 246.132,73.1589 245.881,73.3638 245.63,73.5706 245.379,73.7793 245.129,73.9899 244.879,74.2024 244.629,74.4168 244.379,74.6332 244.13,74.8514 243.881,75.0716 243.633,75.2937 243.384,75.5178 243.136,75.7438 242.889,75.9718 242.642,76.2017 242.395,76.4335 242.148,76.6673 241.902,76.9031 241.657,77.1408 241.412,77.3805 241.167,77.6222 298.08,91.08 280.574,121.754 280.674,121.937 280.774,122.12 280.876,122.303 280.98,122.487 281.084,122.67 281.19,122.853 281.297,123.037 281.405,123.22 281.514,123.404 281.625,123.587 281.737,123.77 281.85,123.954 281.964,124.137 282.08,124.321 282.197,124.504 282.316,124.688 282.435,124.871 282.556,125.055 282.678,125.238 282.802,125.421 282.927,125.605 283.053,125.788 283.18,125.971 283.309,126.154 283.439,126.337 283.57,126.52 283.703,126.703 283.837,126.886 283.972,127.068 284.109,127.251 284.247,127.433 284.386,127.616 284.527,127.798 284.669,127.98 284.813,128.162 284.957,128.343 285.103,128.525 285.251,128.706 285.4,128.887 285.55,129.068 285.702,129.249 285.855,129.43 286.009,129.61 286.165,129.79 286.322,129.97 286.481,130.15 286.641,130.33 286.802,130.509 286.965,130.688 287.129,130.867 287.294,131.045 287.461,131.223 287.63,131.401 287.799,131.579 287.971,131.756 288.143,131.933 288.317,132.11 288.493,132.286 288.67,132.462 288.848,132.638 289.028,132.814 289.209,132.989 289.392,133.163 289.576,133.337 289.761,133.511 289.948,133.685 290.137,133.858 290.326,134.031 290.518,134.203 290.711,134.375 290.905,134.546 291.101,134.717 291.298,134.888 291.496,135.058 291.697,135.227 291.898,135.396 292.101,135.565 292.306,135.733 292.512,135.901 292.719,136.068 292.928,136.234 293.139,136.401 293.351,136.566 293.564,136.731 293.779,136.895 293.996,137.059 294.214,137.223 294.433,137.385 294.654,137.547 294.876,137.709 295.1,137.87 295.326,138.03 295.553,138.19 295.781,138.349 296.011,138.507 296.242,138.665 296.475,138.822 296.71,138.978 296.946,139.134 297.183,139.288 297.422,139.443 297.663,139.596 297.905,139.749 298.148,139.901 298.393,140.052 298.64,140.203 298.888,140.352 299.138,140.501 299.389,140.65 299.642,140.797 299.896,140.944 300.152,141.089 300.409,141.234 300.668,141.378 300.928,141.521 301.19,141.664 301.453,141.805 301.718,141.946 301.984,142.086 302.252,142.224 302.522,142.362 302.793,142.499 303.065,142.635 303.34,142.771 303.615,142.905 303.892,143.038 304.171,143.17 304.451,143.301 304.733,143.431 305.016,143.561 305.301,143.689 305.587,143.816 305.875,143.942 306.164,144.067 306.455,144.191 306.747,144.314 307.041,144.436 307.337,144.557 307.634,144.676 307.932,144.795 308.232,144.912 308.534,145.029 308.837,145.144 309.141,145.258 309.448,145.37 309.755,145.482 310.064,145.592 310.375,145.702 310.687,145.81 311.001,145.916 311.316,146.022 311.632,146.126 311.951,146.229 312.27,146.331 312.591,146.431 312.914,146.53 313.238,146.628 313.564,146.724 313.891,146.82 314.22,146.913 314.55,147.006 314.882,147.097 298.08,91.08"
     transform="rotate(17.233677,185.6669,1443.0721)" />
  <polyline
     style="fill:none;stroke:#0000ff;stroke-width:0.5;shape-rendering:crispEdges"
     id="polyline64"
     points="295.08,91.08 301.08,91.08" />
  <polyline
     style="fill:none;stroke:#0000ff;stroke-width:0.5;shape-rendering:crispEdges"
     id="polyline66"
     points="298.08,88.08 298.08,94.08" />
  <polyline
     style="fill:none;stroke:#0000ff;stroke-width:0.5;shape-rendering:crispEdges"
     id="polyline68"
     points="295.959,88.9587 300.201,93.2013" />
  <polyline
     style="fill:none;stroke:#0000ff;stroke-width:0.5;shape-rendering:crispEdges"
     id="polyline70"
     points="295.959,93.2013 300.201,88.9587" />
  <polyline
     style="fill:none;stroke:#0000ff;stroke-width:0.5;shape-rendering:crispEdges"
     id="polyline72"
     points="277.542,320 277.542,287.658 355.293,287.658 355.293,239.247 433.044,239.247 433.044,190.836"
     transform="translate(364.18659,-43.532508)" />
</svg>
